%TF.GenerationSoftware,KiCad,Pcbnew,10.0.3*%
%TF.CreationDate,2026-06-04T16:43:58+05:30*%
%TF.ProjectId,pawsitive,70617773-6974-4697-9665-2e6b69636164,rev?*%
%TF.SameCoordinates,Original*%
%TF.FileFunction,Soldermask,Bot*%
%TF.FilePolarity,Negative*%
%FSLAX46Y46*%
G04 Gerber Fmt 4.6, Leading zero omitted, Abs format (unit mm)*
G04 Created by KiCad (PCBNEW 10.0.3) date 2026-06-04 16:43:58*
%MOMM*%
%LPD*%
G01*
G04 APERTURE LIST*
G04 Aperture macros list*
%AMRoundRect*
0 Rectangle with rounded corners*
0 $1 Rounding radius*
0 $2 $3 $4 $5 $6 $7 $8 $9 X,Y pos of 4 corners*
0 Add a 4 corners polygon primitive as box body*
4,1,4,$2,$3,$4,$5,$6,$7,$8,$9,$2,$3,0*
0 Add four circle primitives for the rounded corners*
1,1,$1+$1,$2,$3*
1,1,$1+$1,$4,$5*
1,1,$1+$1,$6,$7*
1,1,$1+$1,$8,$9*
0 Add four rect primitives between the rounded corners*
20,1,$1+$1,$2,$3,$4,$5,0*
20,1,$1+$1,$4,$5,$6,$7,0*
20,1,$1+$1,$6,$7,$8,$9,0*
20,1,$1+$1,$8,$9,$2,$3,0*%
G04 Aperture macros list end*
%ADD10R,1.700000X1.700000*%
%ADD11C,1.800000*%
%ADD12RoundRect,0.250000X0.625000X-0.350000X0.625000X0.350000X-0.625000X0.350000X-0.625000X-0.350000X0*%
%ADD13O,1.750000X1.200000*%
%ADD14R,0.850000X0.850000*%
%ADD15C,0.850000*%
%ADD16RoundRect,0.250000X-0.600000X-0.750000X0.600000X-0.750000X0.600000X0.750000X-0.600000X0.750000X0*%
%ADD17O,1.700000X2.000000*%
%ADD18C,1.552000*%
%ADD19RoundRect,0.250000X0.750000X-0.600000X0.750000X0.600000X-0.750000X0.600000X-0.750000X-0.600000X0*%
%ADD20O,2.000000X1.700000*%
%ADD21R,1.800000X1.800000*%
%TA.AperFunction,ComponentPad*%
%ADD22R,1.700000X1.700000*%
%TD*%
%TA.AperFunction,ComponentPad*%
%ADD23C,1.800000*%
%TD*%
%TA.AperFunction,ComponentPad*%
%ADD24RoundRect,0.250000X0.625000X-0.350000X0.625000X0.350000X-0.625000X0.350000X-0.625000X-0.350000X0*%
%TD*%
%TA.AperFunction,ComponentPad*%
%ADD25O,1.750000X1.200000*%
%TD*%
%TA.AperFunction,ComponentPad*%
%ADD26R,0.850000X0.850000*%
%TD*%
%TA.AperFunction,ComponentPad*%
%ADD27C,0.850000*%
%TD*%
%TA.AperFunction,ComponentPad*%
%ADD28RoundRect,0.250000X-0.600000X-0.750000X0.600000X-0.750000X0.600000X0.750000X-0.600000X0.750000X0*%
%TD*%
%TA.AperFunction,ComponentPad*%
%ADD29O,1.700000X2.000000*%
%TD*%
%TA.AperFunction,HeatsinkPad*%
%ADD30C,0.500000*%
%TD*%
%TA.AperFunction,HeatsinkPad*%
%ADD31R,1.900000X2.900000*%
%TD*%
%TA.AperFunction,ComponentPad*%
%ADD32C,1.348000*%
%TD*%
%TA.AperFunction,ComponentPad*%
%ADD33RoundRect,0.250000X0.750000X-0.600000X0.750000X0.600000X-0.750000X0.600000X-0.750000X-0.600000X0*%
%TD*%
%TA.AperFunction,ComponentPad*%
%ADD34O,2.000000X1.700000*%
%TD*%
%TA.AperFunction,ComponentPad*%
%ADD35R,1.800000X1.800000*%
%TD*%
%TA.AperFunction,ViaPad*%
%ADD36C,0.600000*%
%TD*%
%TA.AperFunction,Conductor*%
%ADD37C,0.200000*%
%TD*%
%TA.AperFunction,SMDPad,CuDef*%
%ADD38RoundRect,0.200000X-0.275000X0.200000X-0.275000X-0.200000X0.275000X-0.200000X0.275000X0.200000X0*%
%TD*%
%TA.AperFunction,SMDPad,CuDef*%
%ADD39RoundRect,0.200000X0.200000X0.275000X-0.200000X0.275000X-0.200000X-0.275000X0.200000X-0.275000X0*%
%TD*%
%TA.AperFunction,SMDPad,CuDef*%
%ADD40RoundRect,0.237500X0.300000X0.237500X-0.300000X0.237500X-0.300000X-0.237500X0.300000X-0.237500X0*%
%TD*%
%TA.AperFunction,SMDPad,CuDef*%
%ADD41R,0.475000X0.250000*%
%TD*%
%TA.AperFunction,SMDPad,CuDef*%
%ADD42R,0.250000X0.475000*%
%TD*%
%TA.AperFunction,SMDPad,CuDef*%
%ADD43RoundRect,0.237500X-0.300000X-0.237500X0.300000X-0.237500X0.300000X0.237500X-0.300000X0.237500X0*%
%TD*%
%TA.AperFunction,SMDPad,CuDef*%
%ADD44RoundRect,0.200000X0.275000X-0.200000X0.275000X0.200000X-0.275000X0.200000X-0.275000X-0.200000X0*%
%TD*%
%TA.AperFunction,SMDPad,CuDef*%
%ADD45RoundRect,0.150000X-0.825000X-0.150000X0.825000X-0.150000X0.825000X0.150000X-0.825000X0.150000X0*%
%TD*%
%TA.AperFunction,HeatsinkPad*%
%ADD46R,2.410000X3.300000*%
%TD*%
%TA.AperFunction,SMDPad,CuDef*%
%ADD47RoundRect,0.250000X-0.250000X-0.475000X0.250000X-0.475000X0.250000X0.475000X-0.250000X0.475000X0*%
%TD*%
%TA.AperFunction,Conductor*%
%ADD48C,0.300000*%
%TD*%
%ADD49RoundRect,0.200000X-0.275000X0.200000X-0.275000X-0.200000X0.275000X-0.200000X0.275000X0.200000X0*%
%ADD50RoundRect,0.200000X0.200000X0.275000X-0.200000X0.275000X-0.200000X-0.275000X0.200000X-0.275000X0*%
%ADD51RoundRect,0.237500X0.300000X0.237500X-0.300000X0.237500X-0.300000X-0.237500X0.300000X-0.237500X0*%
%ADD52RoundRect,0.102000X-0.237500X-0.125000X0.237500X-0.125000X0.237500X0.125000X-0.237500X0.125000X0*%
%ADD53RoundRect,0.102000X-0.125000X-0.237500X0.125000X-0.237500X0.125000X0.237500X-0.125000X0.237500X0*%
%ADD54RoundRect,0.237500X-0.300000X-0.237500X0.300000X-0.237500X0.300000X0.237500X-0.300000X0.237500X0*%
%ADD55RoundRect,0.200000X0.275000X-0.200000X0.275000X0.200000X-0.275000X0.200000X-0.275000X-0.200000X0*%
%ADD56RoundRect,0.150000X-0.825000X-0.150000X0.825000X-0.150000X0.825000X0.150000X-0.825000X0.150000X0*%
%ADD57R,2.410000X3.300000*%
%ADD58RoundRect,0.250000X-0.250000X-0.475000X0.250000X-0.475000X0.250000X0.475000X-0.250000X0.475000X0*%
%ADD59C,0.150000*%
%ADD60C,0.120000*%
%ADD61C,0.127000*%
%TA.AperFunction,Profile*%
%ADD62C,0.050000*%
%TD*%
G04 APERTURE END LIST*
D10*
%TO.C,J9*%
X143000000Y-119500000D03*
%TD*%
D11*
%TO.C,TH1*%
X165680000Y-115750000D03*
X167313330Y-108250000D03*
%TD*%
D12*
%TO.C,J2*%
X118450000Y-119000000D03*
D13*
X118450000Y-117000000D03*
X118450000Y-115000000D03*
%TD*%
D10*
%TO.C,J6*%
X143000000Y-104000000D03*
%TD*%
%TO.C,J7*%
X143000000Y-108000000D03*
%TD*%
D14*
%TO.C,J3*%
X122500000Y-110500000D03*
D15*
X121500000Y-110500000D03*
%TD*%
D16*
%TO.C,J1*%
X126250000Y-118700000D03*
D17*
X128750000Y-118700000D03*
%TD*%
D10*
%TO.C,J8*%
X139000000Y-107500000D03*
%TD*%
D18*
%TO.C,U2*%
X162240000Y-116880000D03*
X162240000Y-114340000D03*
X162240000Y-111800000D03*
X162240000Y-109260000D03*
X162240000Y-104180000D03*
X162240000Y-106720000D03*
X147000000Y-99100000D03*
X162240000Y-99100000D03*
X147000000Y-101640000D03*
X147000000Y-104180000D03*
X147000000Y-106720000D03*
X147000000Y-109260000D03*
X147000000Y-111800000D03*
X147000000Y-114340000D03*
X147000000Y-116880000D03*
X162240000Y-101640000D03*
%TD*%
D19*
%TO.C,J4*%
X134500000Y-113500000D03*
D20*
X134500000Y-111000000D03*
%TD*%
D21*
%TO.C,D1*%
X139460000Y-112000000D03*
D11*
X142000000Y-112000000D03*
%TD*%
D21*
%TO.C,D2*%
X133730000Y-119000000D03*
D11*
X136270000Y-119000000D03*
%TD*%
D10*
%TO.C,J5*%
X166000000Y-103500000D03*
%TD*%
D22*
%TO.P,J9,1,Pin_1_1*%
%TO.N,Net-(J9-Pin_1)*%
X143000000Y-119500000D03*
%TD*%
D23*
%TO.P,TH1,1*%
%TO.N,NTC_ADC*%
X165680000Y-115750000D03*
%TO.P,TH1,2*%
%TO.N,GND*%
X167313330Y-108250000D03*
%TD*%
D24*
%TO.P,J2,1,Pin_1_1*%
%TO.N,BAT_SW*%
X118450000Y-119000000D03*
D25*
%TO.P,J2,2,Pin_2_2*%
%TO.N,NEOPIXEL*%
X118450000Y-117000000D03*
%TO.P,J2,3,Pin_3_3*%
%TO.N,GND*%
X118450000Y-115000000D03*
%TD*%
D22*
%TO.P,J6,1,Pin_1_1*%
%TO.N,Net-(J6-Pin_1)*%
X143000000Y-104000000D03*
%TD*%
%TO.P,J7,1,Pin_1_1*%
%TO.N,Net-(J7-Pin_1)*%
X143000000Y-108000000D03*
%TD*%
D26*
%TO.P,J3,1,Pin_1_1*%
%TO.N,/BAT+*%
X122500000Y-110500000D03*
D27*
%TO.P,J3,2,Pin_2_2*%
%TO.N,BAT_SW*%
X121500000Y-110500000D03*
%TD*%
D28*
%TO.P,J1,1,Pin_1_1*%
%TO.N,VCC*%
X126250000Y-118700000D03*
D29*
%TO.P,J1,2,Pin_2_2*%
%TO.N,GND*%
X128750000Y-118700000D03*
%TD*%
D30*
%TO.P,U1,9,EPAD_9*%
%TO.N,GND*%
X126900000Y-111975000D03*
X126900000Y-113175000D03*
X126900000Y-114375000D03*
D31*
X127600000Y-113175000D03*
D30*
X128300000Y-111975000D03*
X128300000Y-113175000D03*
X128300000Y-114375000D03*
%TD*%
D22*
%TO.P,J8,1,Pin_1_1*%
%TO.N,Net-(J8-Pin_1)*%
X139000000Y-107500000D03*
%TD*%
D32*
%TO.P,U2,0,GPIO0_0*%
%TO.N,NTC_ADC*%
X162240000Y-116880000D03*
%TO.P,U2,1,GPIO1_1*%
%TO.N,MIC_BCLK*%
X162240000Y-114340000D03*
%TO.P,U2,2,GPIO2_2*%
%TO.N,Net-(J5-Pin_1)*%
X162240000Y-111800000D03*
%TO.P,U2,3,GPIO3_3*%
%TO.N,MIC_DATA*%
X162240000Y-109260000D03*
%TO.P,U2,3.3,3V3_3.3*%
%TO.N,3V3*%
X162240000Y-104180000D03*
%TO.P,U2,4,GPIO4_4*%
%TO.N,I2C_SDA*%
X162240000Y-106720000D03*
%TO.P,U2,5,GPIO5_5*%
%TO.N,I2C_SCL*%
X147000000Y-99100000D03*
%TO.P,U2,5V,5V_5V*%
%TO.N,BAT_SW*%
X162240000Y-99100000D03*
%TO.P,U2,6,GPIO6_6*%
%TO.N,BMI270_INT*%
X147000000Y-101640000D03*
%TO.P,U2,7,GPIO7_7*%
%TO.N,MIC_WS*%
X147000000Y-104180000D03*
%TO.P,U2,8,GPIO8_8*%
%TO.N,Net-(J6-Pin_1)*%
X147000000Y-106720000D03*
%TO.P,U2,9,GPIO9_9*%
%TO.N,Net-(J7-Pin_1)*%
X147000000Y-109260000D03*
%TO.P,U2,10,GPIO10_10*%
%TO.N,NEOPIXEL*%
X147000000Y-111800000D03*
%TO.P,U2,20,GPIO20_20*%
%TO.N,Net-(J8-Pin_1)*%
X147000000Y-114340000D03*
%TO.P,U2,21,GPIO21_21*%
%TO.N,Net-(J9-Pin_1)*%
X147000000Y-116880000D03*
%TO.P,U2,G,GND_G*%
%TO.N,GND*%
X162240000Y-101640000D03*
%TD*%
D33*
%TO.P,J4,1,Pin_1_1*%
%TO.N,/BAT+*%
X134500000Y-113500000D03*
D34*
%TO.P,J4,2,Pin_2_2*%
%TO.N,GND*%
X134500000Y-111000000D03*
%TD*%
D35*
%TO.P,D1,1,K_1*%
%TO.N,Net-(D1-K)*%
X139460000Y-112000000D03*
D23*
%TO.P,D1,2,A_2*%
%TO.N,Net-(D1-A)*%
X142000000Y-112000000D03*
%TD*%
D35*
%TO.P,D2,1,K_1*%
%TO.N,Net-(D2-K)*%
X133730000Y-119000000D03*
D23*
%TO.P,D2,2,A_2*%
%TO.N,Net-(D2-A)*%
X136270000Y-119000000D03*
%TD*%
D22*
%TO.P,J5,1,Pin_1_1*%
%TO.N,Net-(J5-Pin_1)*%
X166000000Y-103500000D03*
%TD*%
D36*
%TO.N,VCC*%
X125125000Y-111270000D03*
%TO.N,GND*%
X134500000Y-105000000D03*
X160000000Y-100500000D03*
X140000000Y-101000000D03*
%TO.N,3V3*%
X145500000Y-100325000D03*
X138000000Y-100325000D03*
%TO.N,Net-(D1-K)*%
X130075000Y-113810000D03*
%TD*%
%TO.N,VCC*%
D37*
X126250000Y-118500000D02*
X125125000Y-117375000D01*
X126250000Y-118700000D02*
X126250000Y-118500000D01*
X125125000Y-117375000D02*
X125125000Y-111270000D01*
%TO.N,GND*%
X134500000Y-105000000D02*
X138500000Y-101000000D01*
X138500000Y-101000000D02*
X140000000Y-101000000D01*
X166440000Y-101640000D02*
X162240000Y-101640000D01*
X167313330Y-108250000D02*
X167313330Y-102513330D01*
X159500000Y-100500000D02*
X157000000Y-103000000D01*
X145000000Y-103000000D02*
X143000000Y-101000000D01*
X167313330Y-102513330D02*
X166440000Y-101640000D01*
X157000000Y-103000000D02*
X145000000Y-103000000D01*
X160000000Y-100500000D02*
X159500000Y-100500000D01*
X143000000Y-101000000D02*
X140000000Y-101000000D01*
%TO.N,3V3*%
X145500000Y-100325000D02*
X138000000Y-100325000D01*
X138000000Y-100325000D02*
X138500000Y-100325000D01*
%TO.N,BAT_SW*%
X121500000Y-115950000D02*
X121500000Y-110500000D01*
X121500000Y-110050000D02*
X122050000Y-109500000D01*
X162240000Y-99260000D02*
X162240000Y-99100000D01*
X118450000Y-119000000D02*
X121500000Y-115950000D01*
X144500000Y-109500000D02*
X146000000Y-108000000D01*
X146000000Y-108000000D02*
X153500000Y-108000000D01*
X122050000Y-109500000D02*
X144500000Y-109500000D01*
X121500000Y-110500000D02*
X121500000Y-110050000D01*
X153500000Y-108000000D02*
X162240000Y-99260000D01*
%TO.N,Net-(D1-K)*%
X131535000Y-112350000D02*
X130075000Y-113810000D01*
X139460000Y-112000000D02*
X139110000Y-112350000D01*
X139110000Y-112350000D02*
X131535000Y-112350000D01*
%TO.N,Net-(J5-Pin_1)*%
X166000000Y-108040000D02*
X166000000Y-103500000D01*
X162240000Y-111800000D02*
X166000000Y-108040000D01*
%TD*%
D38*
%TO.P,R4,1*%
%TO.N,Net-(U1-PROG)*%
X123000000Y-112675000D03*
%TO.P,R4,2*%
%TO.N,GND*%
X123000000Y-114325000D03*
%TD*%
D39*
%TO.P,R6,1*%
%TO.N,3V3*%
X142825000Y-97000000D03*
%TO.P,R6,2*%
%TO.N,I2C_SCL*%
X141175000Y-97000000D03*
%TD*%
D22*
%TO.P,J9,1,Pin_1_1*%
%TO.N,Net-(J9-Pin_1)*%
X143000000Y-119500000D03*
%TD*%
D23*
%TO.P,TH1,1*%
%TO.N,NTC_ADC*%
X165680000Y-115750000D03*
%TO.P,TH1,2*%
%TO.N,GND*%
X167313330Y-108250000D03*
%TD*%
D39*
%TO.P,R3,1*%
%TO.N,VCC*%
X140325000Y-119000000D03*
%TO.P,R3,2*%
%TO.N,Net-(D2-A)*%
X138675000Y-119000000D03*
%TD*%
D40*
%TO.P,C4,1*%
%TO.N,3V3*%
X135362500Y-107000000D03*
%TO.P,C4,2*%
%TO.N,GND*%
X133637500Y-107000000D03*
%TD*%
D41*
%TO.P,U3,1,SDO_1*%
%TO.N,GND*%
X140837500Y-98750000D03*
%TO.P,U3,2,ASDX_2*%
%TO.N,unconnected-(U3-ASDX-Pad2)*%
X140837500Y-99250000D03*
%TO.P,U3,3,ASCX_3*%
%TO.N,unconnected-(U3-ASCX-Pad3)*%
X140837500Y-99750000D03*
%TO.P,U3,4,INT1_4*%
%TO.N,BMI270_INT*%
X140837500Y-100250000D03*
D42*
%TO.P,U3,5,VDDIO_5*%
%TO.N,3V3*%
X141500000Y-100412500D03*
%TO.P,U3,6,GNDIO_6*%
%TO.N,GND*%
X142000000Y-100412500D03*
%TO.P,U3,7,GND_7*%
X142500000Y-100412500D03*
D41*
%TO.P,U3,8,VDD_8*%
%TO.N,3V3*%
X143162500Y-100250000D03*
%TO.P,U3,9,INT2_9*%
%TO.N,unconnected-(U3-INT2-Pad9)*%
X143162500Y-99750000D03*
%TO.P,U3,10,OSCB_10*%
%TO.N,unconnected-(U3-OSCB-Pad10)*%
X143162500Y-99250000D03*
%TO.P,U3,11,OSDO_11*%
%TO.N,unconnected-(U3-OSDO-Pad11)*%
X143162500Y-98750000D03*
D42*
%TO.P,U3,12,CSB_12*%
%TO.N,3V3*%
X142500000Y-98587500D03*
%TO.P,U3,13,SCX_13*%
%TO.N,I2C_SCL*%
X142000000Y-98587500D03*
%TO.P,U3,14,SDX_14*%
%TO.N,I2C_SDA*%
X141500000Y-98587500D03*
%TD*%
D24*
%TO.P,J2,1,Pin_1_1*%
%TO.N,BAT_SW*%
X118450000Y-119000000D03*
D25*
%TO.P,J2,2,Pin_2_2*%
%TO.N,NEOPIXEL*%
X118450000Y-117000000D03*
%TO.P,J2,3,Pin_3_3*%
%TO.N,GND*%
X118450000Y-115000000D03*
%TD*%
D22*
%TO.P,J6,1,Pin_1_1*%
%TO.N,Net-(J6-Pin_1)*%
X143000000Y-104000000D03*
%TD*%
D43*
%TO.P,C2,1*%
%TO.N,BAT_SW*%
X121637500Y-108000000D03*
%TO.P,C2,2*%
%TO.N,GND*%
X123362500Y-108000000D03*
%TD*%
D22*
%TO.P,J7,1,Pin_1_1*%
%TO.N,Net-(J7-Pin_1)*%
X143000000Y-108000000D03*
%TD*%
D44*
%TO.P,R5,1*%
%TO.N,3V3*%
X138000000Y-100325000D03*
%TO.P,R5,2*%
%TO.N,I2C_SDA*%
X138000000Y-98675000D03*
%TD*%
D26*
%TO.P,J3,1,Pin_1_1*%
%TO.N,/BAT+*%
X122500000Y-110500000D03*
D27*
%TO.P,J3,2,Pin_2_2*%
%TO.N,BAT_SW*%
X121500000Y-110500000D03*
%TD*%
D28*
%TO.P,J1,1,Pin_1_1*%
%TO.N,VCC*%
X126250000Y-118700000D03*
D29*
%TO.P,J1,2,Pin_2_2*%
%TO.N,GND*%
X128750000Y-118700000D03*
%TD*%
D45*
%TO.P,U1,1,TEMP_1*%
%TO.N,VCC*%
X125125000Y-111270000D03*
%TO.P,U1,2,PROG_2*%
%TO.N,Net-(U1-PROG)*%
X125125000Y-112540000D03*
%TO.P,U1,3,GND_3*%
%TO.N,GND*%
X125125000Y-113810000D03*
%TO.P,U1,4,V_{CC}_4*%
%TO.N,VCC*%
X125125000Y-115080000D03*
%TO.P,U1,5,BAT_5*%
%TO.N,/BAT+*%
X130075000Y-115080000D03*
%TO.P,U1,6,~{STDBY}_6*%
%TO.N,Net-(D1-K)*%
X130075000Y-113810000D03*
%TO.P,U1,7,~{CHRG}_7*%
%TO.N,Net-(D2-K)*%
X130075000Y-112540000D03*
%TO.P,U1,8,CE_8*%
%TO.N,CHRG_EN*%
X130075000Y-111270000D03*
D30*
%TO.P,U1,9,EPAD_9*%
%TO.N,GND*%
X126900000Y-111975000D03*
X126900000Y-113175000D03*
X126900000Y-114375000D03*
D46*
X127600000Y-113175000D03*
D30*
X128300000Y-111975000D03*
X128300000Y-113175000D03*
X128300000Y-114375000D03*
%TD*%
D47*
%TO.P,C1,1*%
%TO.N,VCC*%
X125550000Y-108000000D03*
%TO.P,C1,2*%
%TO.N,GND*%
X127450000Y-108000000D03*
%TD*%
D39*
%TO.P,R2,1*%
%TO.N,3V3*%
X166825000Y-119500000D03*
%TO.P,R2,2*%
%TO.N,NTC_ADC*%
X165175000Y-119500000D03*
%TD*%
D22*
%TO.P,J8,1,Pin_1_1*%
%TO.N,Net-(J8-Pin_1)*%
X139000000Y-107500000D03*
%TD*%
D32*
%TO.P,U2,0,GPIO0_0*%
%TO.N,NTC_ADC*%
X162240000Y-116880000D03*
%TO.P,U2,1,GPIO1_1*%
%TO.N,MIC_BCLK*%
X162240000Y-114340000D03*
%TO.P,U2,2,GPIO2_2*%
%TO.N,Net-(J5-Pin_1)*%
X162240000Y-111800000D03*
%TO.P,U2,3,GPIO3_3*%
%TO.N,MIC_DATA*%
X162240000Y-109260000D03*
%TO.P,U2,3.3,3V3_3.3*%
%TO.N,3V3*%
X162240000Y-104180000D03*
%TO.P,U2,4,GPIO4_4*%
%TO.N,I2C_SDA*%
X162240000Y-106720000D03*
%TO.P,U2,5,GPIO5_5*%
%TO.N,I2C_SCL*%
X147000000Y-99100000D03*
%TO.P,U2,5V,5V_5V*%
%TO.N,BAT_SW*%
X162240000Y-99100000D03*
%TO.P,U2,6,GPIO6_6*%
%TO.N,BMI270_INT*%
X147000000Y-101640000D03*
%TO.P,U2,7,GPIO7_7*%
%TO.N,MIC_WS*%
X147000000Y-104180000D03*
%TO.P,U2,8,GPIO8_8*%
%TO.N,Net-(J6-Pin_1)*%
X147000000Y-106720000D03*
%TO.P,U2,9,GPIO9_9*%
%TO.N,Net-(J7-Pin_1)*%
X147000000Y-109260000D03*
%TO.P,U2,10,GPIO10_10*%
%TO.N,NEOPIXEL*%
X147000000Y-111800000D03*
%TO.P,U2,20,GPIO20_20*%
%TO.N,Net-(J8-Pin_1)*%
X147000000Y-114340000D03*
%TO.P,U2,21,GPIO21_21*%
%TO.N,Net-(J9-Pin_1)*%
X147000000Y-116880000D03*
%TO.P,U2,G,GND_G*%
%TO.N,GND*%
X162240000Y-101640000D03*
%TD*%
D33*
%TO.P,J4,1,Pin_1_1*%
%TO.N,/BAT+*%
X134500000Y-113500000D03*
D34*
%TO.P,J4,2,Pin_2_2*%
%TO.N,GND*%
X134500000Y-111000000D03*
%TD*%
D47*
%TO.P,C3,1*%
%TO.N,GND*%
X129550000Y-108000000D03*
%TO.P,C3,2*%
%TO.N,/BAT+*%
X131450000Y-108000000D03*
%TD*%
D38*
%TO.P,R1,1*%
%TO.N,VCC*%
X140500000Y-115175000D03*
%TO.P,R1,2*%
%TO.N,Net-(D1-A)*%
X140500000Y-116825000D03*
%TD*%
D35*
%TO.P,D1,1,K_1*%
%TO.N,Net-(D1-K)*%
X139460000Y-112000000D03*
D23*
%TO.P,D1,2,A_2*%
%TO.N,Net-(D1-A)*%
X142000000Y-112000000D03*
%TD*%
D35*
%TO.P,D2,1,K_1*%
%TO.N,Net-(D2-K)*%
X133730000Y-119000000D03*
D23*
%TO.P,D2,2,A_2*%
%TO.N,Net-(D2-A)*%
X136270000Y-119000000D03*
%TD*%
D22*
%TO.P,J5,1,Pin_1_1*%
%TO.N,Net-(J5-Pin_1)*%
X166000000Y-103500000D03*
%TD*%
D36*
%TO.N,VCC*%
X125125000Y-111270000D03*
%TO.N,GND*%
X134500000Y-105000000D03*
X160000000Y-100500000D03*
X140000000Y-101000000D03*
%TO.N,3V3*%
X145500000Y-100325000D03*
X138000000Y-100325000D03*
%TO.N,Net-(D1-K)*%
X130075000Y-113810000D03*
%TD*%
%TO.N,VCC*%
D37*
X128650000Y-121100000D02*
X126250000Y-118700000D01*
X139725000Y-115950000D02*
X139725000Y-118400000D01*
X125550000Y-108000000D02*
X125550000Y-110845000D01*
X140325000Y-119675000D02*
X138900000Y-121100000D01*
X140500000Y-115175000D02*
X139725000Y-115950000D01*
X126250000Y-116205000D02*
X125125000Y-115080000D01*
X125550000Y-110845000D02*
X125125000Y-111270000D01*
X140325000Y-119000000D02*
X140325000Y-119675000D01*
X138900000Y-121100000D02*
X128650000Y-121100000D01*
X126250000Y-118700000D02*
X126250000Y-116205000D01*
X139725000Y-118400000D02*
X140325000Y-119000000D01*
%TO.N,GND*%
X133637500Y-105862500D02*
X134500000Y-105000000D01*
X118450000Y-108050000D02*
X120900000Y-105600000D01*
X125125000Y-113810000D02*
X123515000Y-113810000D01*
X123515000Y-113810000D02*
X123000000Y-114325000D01*
X123362500Y-107571815D02*
X125334315Y-105600000D01*
X123362500Y-108000000D02*
X123362500Y-107571815D01*
X134500000Y-111000000D02*
X134500000Y-107862500D01*
X120900000Y-105600000D02*
X125334315Y-105600000D01*
X126900000Y-108550000D02*
X127450000Y-108000000D01*
X125334315Y-105600000D02*
X132237500Y-105600000D01*
X123000000Y-114325000D02*
X119125000Y-114325000D01*
X142500000Y-100412500D02*
X142000000Y-100412500D01*
X140837500Y-98750000D02*
X140375000Y-98750000D01*
X127450000Y-108000000D02*
X129550000Y-108000000D01*
X119125000Y-114325000D02*
X118450000Y-115000000D01*
X128300000Y-114375000D02*
X128300000Y-118250000D01*
X133637500Y-107000000D02*
X133637500Y-105862500D01*
X160000000Y-100500000D02*
X161100000Y-100500000D01*
X134500000Y-107862500D02*
X133637500Y-107000000D01*
X128300000Y-118250000D02*
X128750000Y-118700000D01*
D48*
X126900000Y-111975000D02*
X126900000Y-108550000D01*
D37*
X118450000Y-115000000D02*
X118450000Y-108050000D01*
X132237500Y-105600000D02*
X133637500Y-107000000D01*
X125125000Y-113810000D02*
X126965000Y-113810000D01*
X140375000Y-98750000D02*
X140000000Y-99125000D01*
X140000000Y-99125000D02*
X140000000Y-101000000D01*
X126965000Y-113810000D02*
X127600000Y-113175000D01*
X161100000Y-100500000D02*
X162240000Y-101640000D01*
%TO.N,/BAT+*%
X134500000Y-120500000D02*
X134930000Y-120070000D01*
X130075000Y-117745000D02*
X132830000Y-120500000D01*
X132500000Y-110000000D02*
X132500000Y-111500000D01*
X129450000Y-106000000D02*
X131450000Y-108000000D01*
X131450000Y-108000000D02*
X131450000Y-108950000D01*
X132830000Y-120500000D02*
X134500000Y-120500000D01*
X130075000Y-115080000D02*
X130075000Y-117745000D01*
X125500000Y-106000000D02*
X129450000Y-106000000D01*
X122500000Y-110500000D02*
X124500000Y-108500000D01*
X132500000Y-111500000D02*
X134500000Y-113500000D01*
X124500000Y-107000000D02*
X125500000Y-106000000D01*
X134930000Y-120070000D02*
X134930000Y-113930000D01*
X134930000Y-113930000D02*
X134500000Y-113500000D01*
X124500000Y-108500000D02*
X124500000Y-107000000D01*
X131450000Y-108950000D02*
X132500000Y-110000000D01*
%TO.N,3V3*%
X145675000Y-100500000D02*
X158560000Y-100500000D01*
X142825000Y-97000000D02*
X142825000Y-98262500D01*
X144500000Y-98000000D02*
X144500000Y-99375000D01*
X143500000Y-97000000D02*
X144500000Y-98000000D01*
X168500000Y-117825000D02*
X166825000Y-119500000D01*
X135362500Y-103962500D02*
X135362500Y-107000000D01*
X168500000Y-114000000D02*
X168500000Y-117825000D01*
X142325000Y-99125000D02*
X142342157Y-99107843D01*
X142825000Y-98262500D02*
X142500000Y-98587500D01*
X158560000Y-100500000D02*
X162240000Y-104180000D01*
X164500000Y-110000000D02*
X168500000Y-114000000D01*
X142425000Y-99107843D02*
X142425000Y-98587500D01*
X141500000Y-100412500D02*
X141500000Y-99500000D01*
X143625000Y-100250000D02*
X143162500Y-100250000D01*
X142825000Y-97000000D02*
X143500000Y-97000000D01*
X145500000Y-100325000D02*
X145675000Y-100500000D01*
X145500000Y-100325000D02*
X145325000Y-100500000D01*
X143412500Y-100500000D02*
X143162500Y-100250000D01*
X144500000Y-99375000D02*
X143625000Y-100250000D01*
X142342157Y-99107843D02*
X142425000Y-99107843D01*
X138000000Y-100325000D02*
X138000000Y-101325000D01*
X142425000Y-98587500D02*
X142500000Y-98587500D01*
X141500000Y-99500000D02*
X141875000Y-99125000D01*
X164500000Y-106440000D02*
X164500000Y-110000000D01*
X141875000Y-99125000D02*
X142325000Y-99125000D01*
X145325000Y-100500000D02*
X143412500Y-100500000D01*
X138000000Y-101325000D02*
X135362500Y-103962500D01*
X162240000Y-104180000D02*
X164500000Y-106440000D01*
%TO.N,BAT_SW*%
X121500000Y-110500000D02*
X121500000Y-108137500D01*
X118450000Y-119000000D02*
X118000000Y-119000000D01*
X121500000Y-108137500D02*
X121637500Y-108000000D01*
%TO.N,Net-(D1-A)*%
X142000000Y-112000000D02*
X142000000Y-115325000D01*
X142000000Y-115325000D02*
X140500000Y-116825000D01*
%TO.N,Net-(D2-K)*%
X132500000Y-113990001D02*
X131049999Y-112540000D01*
X133730000Y-119000000D02*
X133730000Y-117730000D01*
X131049999Y-112540000D02*
X130075000Y-112540000D01*
X133730000Y-117730000D02*
X132500000Y-116500000D01*
X132500000Y-116500000D02*
X132500000Y-113990001D01*
%TO.N,Net-(D2-A)*%
X138675000Y-119000000D02*
X136270000Y-119000000D01*
%TO.N,NEOPIXEL*%
X147000000Y-111800000D02*
X149000000Y-113800000D01*
X119500000Y-117000000D02*
X118450000Y-117000000D01*
X124000000Y-121500000D02*
X119500000Y-117000000D01*
X149000000Y-113800000D02*
X149000000Y-117000000D01*
X144500000Y-121500000D02*
X124000000Y-121500000D01*
X149000000Y-117000000D02*
X144500000Y-121500000D01*
%TO.N,Net-(J6-Pin_1)*%
X143780000Y-103500000D02*
X143000000Y-103500000D01*
X145720000Y-106720000D02*
X143000000Y-104000000D01*
X147000000Y-106720000D02*
X145720000Y-106720000D01*
%TO.N,Net-(J7-Pin_1)*%
X145240000Y-107500000D02*
X147000000Y-109260000D01*
X143000000Y-107500000D02*
X145240000Y-107500000D01*
%TO.N,Net-(J8-Pin_1)*%
X139000000Y-107500000D02*
X140160000Y-107500000D01*
X140160000Y-107500000D02*
X147000000Y-114340000D01*
%TO.N,Net-(J9-Pin_1)*%
X147000000Y-116880000D02*
X145620000Y-116880000D01*
X145620000Y-116880000D02*
X143000000Y-119500000D01*
%TO.N,I2C_SCL*%
X141950000Y-96225000D02*
X141175000Y-97000000D01*
X142000000Y-97825000D02*
X142000000Y-98587500D01*
X147000000Y-99100000D02*
X144125000Y-96225000D01*
X141175000Y-97000000D02*
X142000000Y-97825000D01*
X144125000Y-96225000D02*
X141950000Y-96225000D01*
%TO.N,I2C_SDA*%
X139000000Y-98675000D02*
X138500000Y-98675000D01*
X141237500Y-98325000D02*
X141500000Y-98587500D01*
X140350000Y-102850000D02*
X139000000Y-101500000D01*
X139000000Y-101500000D02*
X139000000Y-98675000D01*
X139000000Y-98675000D02*
X139350000Y-98325000D01*
X162240000Y-106720000D02*
X158370000Y-102850000D01*
X139350000Y-98325000D02*
X141237500Y-98325000D01*
X158370000Y-102850000D02*
X140350000Y-102850000D01*
%TO.N,NTC_ADC*%
X164550000Y-116880000D02*
X165680000Y-115750000D01*
X165680000Y-115750000D02*
X165680000Y-118995000D01*
X165680000Y-118995000D02*
X165175000Y-119500000D01*
X162240000Y-116880000D02*
X164550000Y-116880000D01*
%TO.N,BMI270_INT*%
X142125000Y-102000000D02*
X140837500Y-100712500D01*
X147000000Y-101640000D02*
X146640000Y-102000000D01*
X146640000Y-102000000D02*
X142125000Y-102000000D01*
X140837500Y-100712500D02*
X140837500Y-100250000D01*
%TO.N,Net-(U1-PROG)*%
X123000000Y-112675000D02*
X124990000Y-112675000D01*
X124990000Y-112675000D02*
X125125000Y-112540000D01*
%TD*%
D49*
%TO.C,R4*%
X123000000Y-112675000D03*
X123000000Y-114325000D03*
%TD*%
D50*
%TO.C,R6*%
X142825000Y-97000000D03*
X141175000Y-97000000D03*
%TD*%
D10*
%TO.C,J9*%
X143000000Y-119500000D03*
%TD*%
D11*
%TO.C,TH1*%
X165680000Y-115750000D03*
X167313330Y-108250000D03*
%TD*%
D50*
%TO.C,R3*%
X140325000Y-119000000D03*
X138675000Y-119000000D03*
%TD*%
D51*
%TO.C,C4*%
X135362500Y-107000000D03*
X133637500Y-107000000D03*
%TD*%
D52*
%TO.C,U3*%
X140837500Y-98750000D03*
X140837500Y-99250000D03*
X140837500Y-99750000D03*
X140837500Y-100250000D03*
D53*
X141500000Y-100412500D03*
X142000000Y-100412500D03*
X142500000Y-100412500D03*
D52*
X143162500Y-100250000D03*
X143162500Y-99750000D03*
X143162500Y-99250000D03*
X143162500Y-98750000D03*
D53*
X142500000Y-98587500D03*
X142000000Y-98587500D03*
X141500000Y-98587500D03*
%TD*%
D12*
%TO.C,J2*%
X118450000Y-119000000D03*
D13*
X118450000Y-117000000D03*
X118450000Y-115000000D03*
%TD*%
D10*
%TO.C,J6*%
X143000000Y-104000000D03*
%TD*%
D54*
%TO.C,C2*%
X121637500Y-108000000D03*
X123362500Y-108000000D03*
%TD*%
D10*
%TO.C,J7*%
X143000000Y-108000000D03*
%TD*%
D55*
%TO.C,R5*%
X138000000Y-100325000D03*
X138000000Y-98675000D03*
%TD*%
D14*
%TO.C,J3*%
X122500000Y-110500000D03*
D15*
X121500000Y-110500000D03*
%TD*%
D16*
%TO.C,J1*%
X126250000Y-118700000D03*
D17*
X128750000Y-118700000D03*
%TD*%
D56*
%TO.C,U1*%
X125125000Y-111270000D03*
X125125000Y-112540000D03*
X125125000Y-113810000D03*
X125125000Y-115080000D03*
X130075000Y-115080000D03*
X130075000Y-113810000D03*
X130075000Y-112540000D03*
X130075000Y-111270000D03*
D57*
X127600000Y-113175000D03*
%TD*%
D58*
%TO.C,C1*%
X125550000Y-108000000D03*
X127450000Y-108000000D03*
%TD*%
D50*
%TO.C,R2*%
X166825000Y-119500000D03*
X165175000Y-119500000D03*
%TD*%
D10*
%TO.C,J8*%
X139000000Y-107500000D03*
%TD*%
D18*
%TO.C,U2*%
X162240000Y-116880000D03*
X162240000Y-114340000D03*
X162240000Y-111800000D03*
X162240000Y-109260000D03*
X162240000Y-104180000D03*
X162240000Y-106720000D03*
X147000000Y-99100000D03*
X162240000Y-99100000D03*
X147000000Y-101640000D03*
X147000000Y-104180000D03*
X147000000Y-106720000D03*
X147000000Y-109260000D03*
X147000000Y-111800000D03*
X147000000Y-114340000D03*
X147000000Y-116880000D03*
X162240000Y-101640000D03*
%TD*%
D19*
%TO.C,J4*%
X134500000Y-113500000D03*
D20*
X134500000Y-111000000D03*
%TD*%
D58*
%TO.C,C3*%
X129550000Y-108000000D03*
X131450000Y-108000000D03*
%TD*%
D49*
%TO.C,R1*%
X140500000Y-115175000D03*
X140500000Y-116825000D03*
%TD*%
D21*
%TO.C,D1*%
X139460000Y-112000000D03*
D11*
X142000000Y-112000000D03*
%TD*%
D21*
%TO.C,D2*%
X133730000Y-119000000D03*
D11*
X136270000Y-119000000D03*
%TD*%
D10*
%TO.C,J5*%
X166000000Y-103500000D03*
%TD*%
D59*
X122833333Y-116454819D02*
X122500000Y-115978628D01*
X122261905Y-116454819D02*
X122261905Y-115454819D01*
X122261905Y-115454819D02*
X122642857Y-115454819D01*
X122642857Y-115454819D02*
X122738095Y-115502438D01*
X122738095Y-115502438D02*
X122785714Y-115550057D01*
X122785714Y-115550057D02*
X122833333Y-115645295D01*
X122833333Y-115645295D02*
X122833333Y-115788152D01*
X122833333Y-115788152D02*
X122785714Y-115883390D01*
X122785714Y-115883390D02*
X122738095Y-115931009D01*
X122738095Y-115931009D02*
X122642857Y-115978628D01*
X122642857Y-115978628D02*
X122261905Y-115978628D01*
X123690476Y-115788152D02*
X123690476Y-116454819D01*
X123452381Y-115407200D02*
X123214286Y-116121485D01*
X123214286Y-116121485D02*
X123833333Y-116121485D01*
X138833333Y-96954819D02*
X138500000Y-96478628D01*
X138261905Y-96954819D02*
X138261905Y-95954819D01*
X138261905Y-95954819D02*
X138642857Y-95954819D01*
X138642857Y-95954819D02*
X138738095Y-96002438D01*
X138738095Y-96002438D02*
X138785714Y-96050057D01*
X138785714Y-96050057D02*
X138833333Y-96145295D01*
X138833333Y-96145295D02*
X138833333Y-96288152D01*
X138833333Y-96288152D02*
X138785714Y-96383390D01*
X138785714Y-96383390D02*
X138738095Y-96431009D01*
X138738095Y-96431009D02*
X138642857Y-96478628D01*
X138642857Y-96478628D02*
X138261905Y-96478628D01*
X139690476Y-95954819D02*
X139500000Y-95954819D01*
X139500000Y-95954819D02*
X139404762Y-96002438D01*
X139404762Y-96002438D02*
X139357143Y-96050057D01*
X139357143Y-96050057D02*
X139261905Y-96192914D01*
X139261905Y-96192914D02*
X139214286Y-96383390D01*
X139214286Y-96383390D02*
X139214286Y-96764342D01*
X139214286Y-96764342D02*
X139261905Y-96859580D01*
X139261905Y-96859580D02*
X139309524Y-96907200D01*
X139309524Y-96907200D02*
X139404762Y-96954819D01*
X139404762Y-96954819D02*
X139595238Y-96954819D01*
X139595238Y-96954819D02*
X139690476Y-96907200D01*
X139690476Y-96907200D02*
X139738095Y-96859580D01*
X139738095Y-96859580D02*
X139785714Y-96764342D01*
X139785714Y-96764342D02*
X139785714Y-96526247D01*
X139785714Y-96526247D02*
X139738095Y-96431009D01*
X139738095Y-96431009D02*
X139690476Y-96383390D01*
X139690476Y-96383390D02*
X139595238Y-96335771D01*
X139595238Y-96335771D02*
X139404762Y-96335771D01*
X139404762Y-96335771D02*
X139309524Y-96383390D01*
X139309524Y-96383390D02*
X139261905Y-96431009D01*
X139261905Y-96431009D02*
X139214286Y-96526247D01*
X142666666Y-116574819D02*
X142666666Y-117289104D01*
X142666666Y-117289104D02*
X142619047Y-117431961D01*
X142619047Y-117431961D02*
X142523809Y-117527200D01*
X142523809Y-117527200D02*
X142380952Y-117574819D01*
X142380952Y-117574819D02*
X142285714Y-117574819D01*
X143190476Y-117574819D02*
X143380952Y-117574819D01*
X143380952Y-117574819D02*
X143476190Y-117527200D01*
X143476190Y-117527200D02*
X143523809Y-117479580D01*
X143523809Y-117479580D02*
X143619047Y-117336723D01*
X143619047Y-117336723D02*
X143666666Y-117146247D01*
X143666666Y-117146247D02*
X143666666Y-116765295D01*
X143666666Y-116765295D02*
X143619047Y-116670057D01*
X143619047Y-116670057D02*
X143571428Y-116622438D01*
X143571428Y-116622438D02*
X143476190Y-116574819D01*
X143476190Y-116574819D02*
X143285714Y-116574819D01*
X143285714Y-116574819D02*
X143190476Y-116622438D01*
X143190476Y-116622438D02*
X143142857Y-116670057D01*
X143142857Y-116670057D02*
X143095238Y-116765295D01*
X143095238Y-116765295D02*
X143095238Y-117003390D01*
X143095238Y-117003390D02*
X143142857Y-117098628D01*
X143142857Y-117098628D02*
X143190476Y-117146247D01*
X143190476Y-117146247D02*
X143285714Y-117193866D01*
X143285714Y-117193866D02*
X143476190Y-117193866D01*
X143476190Y-117193866D02*
X143571428Y-117146247D01*
X143571428Y-117146247D02*
X143619047Y-117098628D01*
X143619047Y-117098628D02*
X143666666Y-117003390D01*
X165954819Y-113285713D02*
X165954819Y-112714285D01*
X166954819Y-112999999D02*
X165954819Y-112999999D01*
X166954819Y-112380951D02*
X165954819Y-112380951D01*
X166431009Y-112380951D02*
X166431009Y-111809523D01*
X166954819Y-111809523D02*
X165954819Y-111809523D01*
X166954819Y-110809523D02*
X166954819Y-111380951D01*
X166954819Y-111095237D02*
X165954819Y-111095237D01*
X165954819Y-111095237D02*
X166097676Y-111190475D01*
X166097676Y-111190475D02*
X166192914Y-111285713D01*
X166192914Y-111285713D02*
X166240533Y-111380951D01*
X139333333Y-120884819D02*
X139000000Y-120408628D01*
X138761905Y-120884819D02*
X138761905Y-119884819D01*
X138761905Y-119884819D02*
X139142857Y-119884819D01*
X139142857Y-119884819D02*
X139238095Y-119932438D01*
X139238095Y-119932438D02*
X139285714Y-119980057D01*
X139285714Y-119980057D02*
X139333333Y-120075295D01*
X139333333Y-120075295D02*
X139333333Y-120218152D01*
X139333333Y-120218152D02*
X139285714Y-120313390D01*
X139285714Y-120313390D02*
X139238095Y-120361009D01*
X139238095Y-120361009D02*
X139142857Y-120408628D01*
X139142857Y-120408628D02*
X138761905Y-120408628D01*
X139666667Y-119884819D02*
X140285714Y-119884819D01*
X140285714Y-119884819D02*
X139952381Y-120265771D01*
X139952381Y-120265771D02*
X140095238Y-120265771D01*
X140095238Y-120265771D02*
X140190476Y-120313390D01*
X140190476Y-120313390D02*
X140238095Y-120361009D01*
X140238095Y-120361009D02*
X140285714Y-120456247D01*
X140285714Y-120456247D02*
X140285714Y-120694342D01*
X140285714Y-120694342D02*
X140238095Y-120789580D01*
X140238095Y-120789580D02*
X140190476Y-120837200D01*
X140190476Y-120837200D02*
X140095238Y-120884819D01*
X140095238Y-120884819D02*
X139809524Y-120884819D01*
X139809524Y-120884819D02*
X139714286Y-120837200D01*
X139714286Y-120837200D02*
X139666667Y-120789580D01*
X133333333Y-105859580D02*
X133285714Y-105907200D01*
X133285714Y-105907200D02*
X133142857Y-105954819D01*
X133142857Y-105954819D02*
X133047619Y-105954819D01*
X133047619Y-105954819D02*
X132904762Y-105907200D01*
X132904762Y-105907200D02*
X132809524Y-105811961D01*
X132809524Y-105811961D02*
X132761905Y-105716723D01*
X132761905Y-105716723D02*
X132714286Y-105526247D01*
X132714286Y-105526247D02*
X132714286Y-105383390D01*
X132714286Y-105383390D02*
X132761905Y-105192914D01*
X132761905Y-105192914D02*
X132809524Y-105097676D01*
X132809524Y-105097676D02*
X132904762Y-105002438D01*
X132904762Y-105002438D02*
X133047619Y-104954819D01*
X133047619Y-104954819D02*
X133142857Y-104954819D01*
X133142857Y-104954819D02*
X133285714Y-105002438D01*
X133285714Y-105002438D02*
X133333333Y-105050057D01*
X134190476Y-105288152D02*
X134190476Y-105954819D01*
X133952381Y-104907200D02*
X133714286Y-105621485D01*
X133714286Y-105621485D02*
X134333333Y-105621485D01*
X139512380Y-101648276D02*
X139512380Y-102166371D01*
X139512380Y-102166371D02*
X139542857Y-102227323D01*
X139542857Y-102227323D02*
X139573333Y-102257800D01*
X139573333Y-102257800D02*
X139634285Y-102288276D01*
X139634285Y-102288276D02*
X139756190Y-102288276D01*
X139756190Y-102288276D02*
X139817142Y-102257800D01*
X139817142Y-102257800D02*
X139847619Y-102227323D01*
X139847619Y-102227323D02*
X139878095Y-102166371D01*
X139878095Y-102166371D02*
X139878095Y-101648276D01*
X140121904Y-101648276D02*
X140518095Y-101648276D01*
X140518095Y-101648276D02*
X140304761Y-101892085D01*
X140304761Y-101892085D02*
X140396190Y-101892085D01*
X140396190Y-101892085D02*
X140457142Y-101922561D01*
X140457142Y-101922561D02*
X140487618Y-101953038D01*
X140487618Y-101953038D02*
X140518095Y-102013990D01*
X140518095Y-102013990D02*
X140518095Y-102166371D01*
X140518095Y-102166371D02*
X140487618Y-102227323D01*
X140487618Y-102227323D02*
X140457142Y-102257800D01*
X140457142Y-102257800D02*
X140396190Y-102288276D01*
X140396190Y-102288276D02*
X140213333Y-102288276D01*
X140213333Y-102288276D02*
X140152380Y-102257800D01*
X140152380Y-102257800D02*
X140121904Y-102227323D01*
X116666666Y-111454819D02*
X116666666Y-112169104D01*
X116666666Y-112169104D02*
X116619047Y-112311961D01*
X116619047Y-112311961D02*
X116523809Y-112407200D01*
X116523809Y-112407200D02*
X116380952Y-112454819D01*
X116380952Y-112454819D02*
X116285714Y-112454819D01*
X117095238Y-111550057D02*
X117142857Y-111502438D01*
X117142857Y-111502438D02*
X117238095Y-111454819D01*
X117238095Y-111454819D02*
X117476190Y-111454819D01*
X117476190Y-111454819D02*
X117571428Y-111502438D01*
X117571428Y-111502438D02*
X117619047Y-111550057D01*
X117619047Y-111550057D02*
X117666666Y-111645295D01*
X117666666Y-111645295D02*
X117666666Y-111740533D01*
X117666666Y-111740533D02*
X117619047Y-111883390D01*
X117619047Y-111883390D02*
X117047619Y-112454819D01*
X117047619Y-112454819D02*
X117666666Y-112454819D01*
X140166666Y-103454819D02*
X140166666Y-104169104D01*
X140166666Y-104169104D02*
X140119047Y-104311961D01*
X140119047Y-104311961D02*
X140023809Y-104407200D01*
X140023809Y-104407200D02*
X139880952Y-104454819D01*
X139880952Y-104454819D02*
X139785714Y-104454819D01*
X141071428Y-103454819D02*
X140880952Y-103454819D01*
X140880952Y-103454819D02*
X140785714Y-103502438D01*
X140785714Y-103502438D02*
X140738095Y-103550057D01*
X140738095Y-103550057D02*
X140642857Y-103692914D01*
X140642857Y-103692914D02*
X140595238Y-103883390D01*
X140595238Y-103883390D02*
X140595238Y-104264342D01*
X140595238Y-104264342D02*
X140642857Y-104359580D01*
X140642857Y-104359580D02*
X140690476Y-104407200D01*
X140690476Y-104407200D02*
X140785714Y-104454819D01*
X140785714Y-104454819D02*
X140976190Y-104454819D01*
X140976190Y-104454819D02*
X141071428Y-104407200D01*
X141071428Y-104407200D02*
X141119047Y-104359580D01*
X141119047Y-104359580D02*
X141166666Y-104264342D01*
X141166666Y-104264342D02*
X141166666Y-104026247D01*
X141166666Y-104026247D02*
X141119047Y-103931009D01*
X141119047Y-103931009D02*
X141071428Y-103883390D01*
X141071428Y-103883390D02*
X140976190Y-103835771D01*
X140976190Y-103835771D02*
X140785714Y-103835771D01*
X140785714Y-103835771D02*
X140690476Y-103883390D01*
X140690476Y-103883390D02*
X140642857Y-103931009D01*
X140642857Y-103931009D02*
X140595238Y-104026247D01*
X122333333Y-106929580D02*
X122285714Y-106977200D01*
X122285714Y-106977200D02*
X122142857Y-107024819D01*
X122142857Y-107024819D02*
X122047619Y-107024819D01*
X122047619Y-107024819D02*
X121904762Y-106977200D01*
X121904762Y-106977200D02*
X121809524Y-106881961D01*
X121809524Y-106881961D02*
X121761905Y-106786723D01*
X121761905Y-106786723D02*
X121714286Y-106596247D01*
X121714286Y-106596247D02*
X121714286Y-106453390D01*
X121714286Y-106453390D02*
X121761905Y-106262914D01*
X121761905Y-106262914D02*
X121809524Y-106167676D01*
X121809524Y-106167676D02*
X121904762Y-106072438D01*
X121904762Y-106072438D02*
X122047619Y-106024819D01*
X122047619Y-106024819D02*
X122142857Y-106024819D01*
X122142857Y-106024819D02*
X122285714Y-106072438D01*
X122285714Y-106072438D02*
X122333333Y-106120057D01*
X122714286Y-106120057D02*
X122761905Y-106072438D01*
X122761905Y-106072438D02*
X122857143Y-106024819D01*
X122857143Y-106024819D02*
X123095238Y-106024819D01*
X123095238Y-106024819D02*
X123190476Y-106072438D01*
X123190476Y-106072438D02*
X123238095Y-106120057D01*
X123238095Y-106120057D02*
X123285714Y-106215295D01*
X123285714Y-106215295D02*
X123285714Y-106310533D01*
X123285714Y-106310533D02*
X123238095Y-106453390D01*
X123238095Y-106453390D02*
X122666667Y-107024819D01*
X122666667Y-107024819D02*
X123285714Y-107024819D01*
X143666666Y-106454819D02*
X143666666Y-107169104D01*
X143666666Y-107169104D02*
X143619047Y-107311961D01*
X143619047Y-107311961D02*
X143523809Y-107407200D01*
X143523809Y-107407200D02*
X143380952Y-107454819D01*
X143380952Y-107454819D02*
X143285714Y-107454819D01*
X144047619Y-106454819D02*
X144714285Y-106454819D01*
X144714285Y-106454819D02*
X144285714Y-107454819D01*
X137024819Y-99666666D02*
X136548628Y-99999999D01*
X137024819Y-100238094D02*
X136024819Y-100238094D01*
X136024819Y-100238094D02*
X136024819Y-99857142D01*
X136024819Y-99857142D02*
X136072438Y-99761904D01*
X136072438Y-99761904D02*
X136120057Y-99714285D01*
X136120057Y-99714285D02*
X136215295Y-99666666D01*
X136215295Y-99666666D02*
X136358152Y-99666666D01*
X136358152Y-99666666D02*
X136453390Y-99714285D01*
X136453390Y-99714285D02*
X136501009Y-99761904D01*
X136501009Y-99761904D02*
X136548628Y-99857142D01*
X136548628Y-99857142D02*
X136548628Y-100238094D01*
X136024819Y-98761904D02*
X136024819Y-99238094D01*
X136024819Y-99238094D02*
X136501009Y-99285713D01*
X136501009Y-99285713D02*
X136453390Y-99238094D01*
X136453390Y-99238094D02*
X136405771Y-99142856D01*
X136405771Y-99142856D02*
X136405771Y-98904761D01*
X136405771Y-98904761D02*
X136453390Y-98809523D01*
X136453390Y-98809523D02*
X136501009Y-98761904D01*
X136501009Y-98761904D02*
X136596247Y-98714285D01*
X136596247Y-98714285D02*
X136834342Y-98714285D01*
X136834342Y-98714285D02*
X136929580Y-98761904D01*
X136929580Y-98761904D02*
X136977200Y-98809523D01*
X136977200Y-98809523D02*
X137024819Y-98904761D01*
X137024819Y-98904761D02*
X137024819Y-99142856D01*
X137024819Y-99142856D02*
X136977200Y-99238094D01*
X136977200Y-99238094D02*
X136929580Y-99285713D01*
X119166666Y-109454819D02*
X119166666Y-110169104D01*
X119166666Y-110169104D02*
X119119047Y-110311961D01*
X119119047Y-110311961D02*
X119023809Y-110407200D01*
X119023809Y-110407200D02*
X118880952Y-110454819D01*
X118880952Y-110454819D02*
X118785714Y-110454819D01*
X119547619Y-109454819D02*
X120166666Y-109454819D01*
X120166666Y-109454819D02*
X119833333Y-109835771D01*
X119833333Y-109835771D02*
X119976190Y-109835771D01*
X119976190Y-109835771D02*
X120071428Y-109883390D01*
X120071428Y-109883390D02*
X120119047Y-109931009D01*
X120119047Y-109931009D02*
X120166666Y-110026247D01*
X120166666Y-110026247D02*
X120166666Y-110264342D01*
X120166666Y-110264342D02*
X120119047Y-110359580D01*
X120119047Y-110359580D02*
X120071428Y-110407200D01*
X120071428Y-110407200D02*
X119976190Y-110454819D01*
X119976190Y-110454819D02*
X119690476Y-110454819D01*
X119690476Y-110454819D02*
X119595238Y-110407200D01*
X119595238Y-110407200D02*
X119547619Y-110359580D01*
X127166666Y-115354819D02*
X127166666Y-116069104D01*
X127166666Y-116069104D02*
X127119047Y-116211961D01*
X127119047Y-116211961D02*
X127023809Y-116307200D01*
X127023809Y-116307200D02*
X126880952Y-116354819D01*
X126880952Y-116354819D02*
X126785714Y-116354819D01*
X128166666Y-116354819D02*
X127595238Y-116354819D01*
X127880952Y-116354819D02*
X127880952Y-115354819D01*
X127880952Y-115354819D02*
X127785714Y-115497676D01*
X127785714Y-115497676D02*
X127690476Y-115592914D01*
X127690476Y-115592914D02*
X127595238Y-115640533D01*
X127738095Y-109229819D02*
X127738095Y-110039342D01*
X127738095Y-110039342D02*
X127785714Y-110134580D01*
X127785714Y-110134580D02*
X127833333Y-110182200D01*
X127833333Y-110182200D02*
X127928571Y-110229819D01*
X127928571Y-110229819D02*
X128119047Y-110229819D01*
X128119047Y-110229819D02*
X128214285Y-110182200D01*
X128214285Y-110182200D02*
X128261904Y-110134580D01*
X128261904Y-110134580D02*
X128309523Y-110039342D01*
X128309523Y-110039342D02*
X128309523Y-109229819D01*
X129309523Y-110229819D02*
X128738095Y-110229819D01*
X129023809Y-110229819D02*
X129023809Y-109229819D01*
X129023809Y-109229819D02*
X128928571Y-109372676D01*
X128928571Y-109372676D02*
X128833333Y-109467914D01*
X128833333Y-109467914D02*
X128738095Y-109515533D01*
X126333333Y-106679580D02*
X126285714Y-106727200D01*
X126285714Y-106727200D02*
X126142857Y-106774819D01*
X126142857Y-106774819D02*
X126047619Y-106774819D01*
X126047619Y-106774819D02*
X125904762Y-106727200D01*
X125904762Y-106727200D02*
X125809524Y-106631961D01*
X125809524Y-106631961D02*
X125761905Y-106536723D01*
X125761905Y-106536723D02*
X125714286Y-106346247D01*
X125714286Y-106346247D02*
X125714286Y-106203390D01*
X125714286Y-106203390D02*
X125761905Y-106012914D01*
X125761905Y-106012914D02*
X125809524Y-105917676D01*
X125809524Y-105917676D02*
X125904762Y-105822438D01*
X125904762Y-105822438D02*
X126047619Y-105774819D01*
X126047619Y-105774819D02*
X126142857Y-105774819D01*
X126142857Y-105774819D02*
X126285714Y-105822438D01*
X126285714Y-105822438D02*
X126333333Y-105870057D01*
X127285714Y-106774819D02*
X126714286Y-106774819D01*
X127000000Y-106774819D02*
X127000000Y-105774819D01*
X127000000Y-105774819D02*
X126904762Y-105917676D01*
X126904762Y-105917676D02*
X126809524Y-106012914D01*
X126809524Y-106012914D02*
X126714286Y-106060533D01*
X168333333Y-119954819D02*
X168000000Y-119478628D01*
X167761905Y-119954819D02*
X167761905Y-118954819D01*
X167761905Y-118954819D02*
X168142857Y-118954819D01*
X168142857Y-118954819D02*
X168238095Y-119002438D01*
X168238095Y-119002438D02*
X168285714Y-119050057D01*
X168285714Y-119050057D02*
X168333333Y-119145295D01*
X168333333Y-119145295D02*
X168333333Y-119288152D01*
X168333333Y-119288152D02*
X168285714Y-119383390D01*
X168285714Y-119383390D02*
X168238095Y-119431009D01*
X168238095Y-119431009D02*
X168142857Y-119478628D01*
X168142857Y-119478628D02*
X167761905Y-119478628D01*
X168714286Y-119050057D02*
X168761905Y-119002438D01*
X168761905Y-119002438D02*
X168857143Y-118954819D01*
X168857143Y-118954819D02*
X169095238Y-118954819D01*
X169095238Y-118954819D02*
X169190476Y-119002438D01*
X169190476Y-119002438D02*
X169238095Y-119050057D01*
X169238095Y-119050057D02*
X169285714Y-119145295D01*
X169285714Y-119145295D02*
X169285714Y-119240533D01*
X169285714Y-119240533D02*
X169238095Y-119383390D01*
X169238095Y-119383390D02*
X168666667Y-119954819D01*
X168666667Y-119954819D02*
X169285714Y-119954819D01*
X138166666Y-104454819D02*
X138166666Y-105169104D01*
X138166666Y-105169104D02*
X138119047Y-105311961D01*
X138119047Y-105311961D02*
X138023809Y-105407200D01*
X138023809Y-105407200D02*
X137880952Y-105454819D01*
X137880952Y-105454819D02*
X137785714Y-105454819D01*
X138785714Y-104883390D02*
X138690476Y-104835771D01*
X138690476Y-104835771D02*
X138642857Y-104788152D01*
X138642857Y-104788152D02*
X138595238Y-104692914D01*
X138595238Y-104692914D02*
X138595238Y-104645295D01*
X138595238Y-104645295D02*
X138642857Y-104550057D01*
X138642857Y-104550057D02*
X138690476Y-104502438D01*
X138690476Y-104502438D02*
X138785714Y-104454819D01*
X138785714Y-104454819D02*
X138976190Y-104454819D01*
X138976190Y-104454819D02*
X139071428Y-104502438D01*
X139071428Y-104502438D02*
X139119047Y-104550057D01*
X139119047Y-104550057D02*
X139166666Y-104645295D01*
X139166666Y-104645295D02*
X139166666Y-104692914D01*
X139166666Y-104692914D02*
X139119047Y-104788152D01*
X139119047Y-104788152D02*
X139071428Y-104835771D01*
X139071428Y-104835771D02*
X138976190Y-104883390D01*
X138976190Y-104883390D02*
X138785714Y-104883390D01*
X138785714Y-104883390D02*
X138690476Y-104931009D01*
X138690476Y-104931009D02*
X138642857Y-104978628D01*
X138642857Y-104978628D02*
X138595238Y-105073866D01*
X138595238Y-105073866D02*
X138595238Y-105264342D01*
X138595238Y-105264342D02*
X138642857Y-105359580D01*
X138642857Y-105359580D02*
X138690476Y-105407200D01*
X138690476Y-105407200D02*
X138785714Y-105454819D01*
X138785714Y-105454819D02*
X138976190Y-105454819D01*
X138976190Y-105454819D02*
X139071428Y-105407200D01*
X139071428Y-105407200D02*
X139119047Y-105359580D01*
X139119047Y-105359580D02*
X139166666Y-105264342D01*
X139166666Y-105264342D02*
X139166666Y-105073866D01*
X139166666Y-105073866D02*
X139119047Y-104978628D01*
X139119047Y-104978628D02*
X139071428Y-104931009D01*
X139071428Y-104931009D02*
X138976190Y-104883390D01*
X150738095Y-97454819D02*
X150738095Y-98264342D01*
X150738095Y-98264342D02*
X150785714Y-98359580D01*
X150785714Y-98359580D02*
X150833333Y-98407200D01*
X150833333Y-98407200D02*
X150928571Y-98454819D01*
X150928571Y-98454819D02*
X151119047Y-98454819D01*
X151119047Y-98454819D02*
X151214285Y-98407200D01*
X151214285Y-98407200D02*
X151261904Y-98359580D01*
X151261904Y-98359580D02*
X151309523Y-98264342D01*
X151309523Y-98264342D02*
X151309523Y-97454819D01*
X151738095Y-97550057D02*
X151785714Y-97502438D01*
X151785714Y-97502438D02*
X151880952Y-97454819D01*
X151880952Y-97454819D02*
X152119047Y-97454819D01*
X152119047Y-97454819D02*
X152214285Y-97502438D01*
X152214285Y-97502438D02*
X152261904Y-97550057D01*
X152261904Y-97550057D02*
X152309523Y-97645295D01*
X152309523Y-97645295D02*
X152309523Y-97740533D01*
X152309523Y-97740533D02*
X152261904Y-97883390D01*
X152261904Y-97883390D02*
X151690476Y-98454819D01*
X151690476Y-98454819D02*
X152309523Y-98454819D01*
X131454819Y-113333333D02*
X132169104Y-113333333D01*
X132169104Y-113333333D02*
X132311961Y-113380952D01*
X132311961Y-113380952D02*
X132407200Y-113476190D01*
X132407200Y-113476190D02*
X132454819Y-113619047D01*
X132454819Y-113619047D02*
X132454819Y-113714285D01*
X131788152Y-112428571D02*
X132454819Y-112428571D01*
X131407200Y-112666666D02*
X132121485Y-112904761D01*
X132121485Y-112904761D02*
X132121485Y-112285714D01*
X130333333Y-106679580D02*
X130285714Y-106727200D01*
X130285714Y-106727200D02*
X130142857Y-106774819D01*
X130142857Y-106774819D02*
X130047619Y-106774819D01*
X130047619Y-106774819D02*
X129904762Y-106727200D01*
X129904762Y-106727200D02*
X129809524Y-106631961D01*
X129809524Y-106631961D02*
X129761905Y-106536723D01*
X129761905Y-106536723D02*
X129714286Y-106346247D01*
X129714286Y-106346247D02*
X129714286Y-106203390D01*
X129714286Y-106203390D02*
X129761905Y-106012914D01*
X129761905Y-106012914D02*
X129809524Y-105917676D01*
X129809524Y-105917676D02*
X129904762Y-105822438D01*
X129904762Y-105822438D02*
X130047619Y-105774819D01*
X130047619Y-105774819D02*
X130142857Y-105774819D01*
X130142857Y-105774819D02*
X130285714Y-105822438D01*
X130285714Y-105822438D02*
X130333333Y-105870057D01*
X130666667Y-105774819D02*
X131285714Y-105774819D01*
X131285714Y-105774819D02*
X130952381Y-106155771D01*
X130952381Y-106155771D02*
X131095238Y-106155771D01*
X131095238Y-106155771D02*
X131190476Y-106203390D01*
X131190476Y-106203390D02*
X131238095Y-106251009D01*
X131238095Y-106251009D02*
X131285714Y-106346247D01*
X131285714Y-106346247D02*
X131285714Y-106584342D01*
X131285714Y-106584342D02*
X131238095Y-106679580D01*
X131238095Y-106679580D02*
X131190476Y-106727200D01*
X131190476Y-106727200D02*
X131095238Y-106774819D01*
X131095238Y-106774819D02*
X130809524Y-106774819D01*
X130809524Y-106774819D02*
X130714286Y-106727200D01*
X130714286Y-106727200D02*
X130666667Y-106679580D01*
X138833333Y-115954819D02*
X138500000Y-115478628D01*
X138261905Y-115954819D02*
X138261905Y-114954819D01*
X138261905Y-114954819D02*
X138642857Y-114954819D01*
X138642857Y-114954819D02*
X138738095Y-115002438D01*
X138738095Y-115002438D02*
X138785714Y-115050057D01*
X138785714Y-115050057D02*
X138833333Y-115145295D01*
X138833333Y-115145295D02*
X138833333Y-115288152D01*
X138833333Y-115288152D02*
X138785714Y-115383390D01*
X138785714Y-115383390D02*
X138738095Y-115431009D01*
X138738095Y-115431009D02*
X138642857Y-115478628D01*
X138642857Y-115478628D02*
X138261905Y-115478628D01*
X139785714Y-115954819D02*
X139214286Y-115954819D01*
X139500000Y-115954819D02*
X139500000Y-114954819D01*
X139500000Y-114954819D02*
X139404762Y-115097676D01*
X139404762Y-115097676D02*
X139309524Y-115192914D01*
X139309524Y-115192914D02*
X139214286Y-115240533D01*
X143261905Y-111454819D02*
X143261905Y-110454819D01*
X143261905Y-110454819D02*
X143500000Y-110454819D01*
X143500000Y-110454819D02*
X143642857Y-110502438D01*
X143642857Y-110502438D02*
X143738095Y-110597676D01*
X143738095Y-110597676D02*
X143785714Y-110692914D01*
X143785714Y-110692914D02*
X143833333Y-110883390D01*
X143833333Y-110883390D02*
X143833333Y-111026247D01*
X143833333Y-111026247D02*
X143785714Y-111216723D01*
X143785714Y-111216723D02*
X143738095Y-111311961D01*
X143738095Y-111311961D02*
X143642857Y-111407200D01*
X143642857Y-111407200D02*
X143500000Y-111454819D01*
X143500000Y-111454819D02*
X143261905Y-111454819D01*
X144785714Y-111454819D02*
X144214286Y-111454819D01*
X144500000Y-111454819D02*
X144500000Y-110454819D01*
X144500000Y-110454819D02*
X144404762Y-110597676D01*
X144404762Y-110597676D02*
X144309524Y-110692914D01*
X144309524Y-110692914D02*
X144214286Y-110740533D01*
X136761905Y-121454819D02*
X136761905Y-120454819D01*
X136761905Y-120454819D02*
X137000000Y-120454819D01*
X137000000Y-120454819D02*
X137142857Y-120502438D01*
X137142857Y-120502438D02*
X137238095Y-120597676D01*
X137238095Y-120597676D02*
X137285714Y-120692914D01*
X137285714Y-120692914D02*
X137333333Y-120883390D01*
X137333333Y-120883390D02*
X137333333Y-121026247D01*
X137333333Y-121026247D02*
X137285714Y-121216723D01*
X137285714Y-121216723D02*
X137238095Y-121311961D01*
X137238095Y-121311961D02*
X137142857Y-121407200D01*
X137142857Y-121407200D02*
X137000000Y-121454819D01*
X137000000Y-121454819D02*
X136761905Y-121454819D01*
X137714286Y-120550057D02*
X137761905Y-120502438D01*
X137761905Y-120502438D02*
X137857143Y-120454819D01*
X137857143Y-120454819D02*
X138095238Y-120454819D01*
X138095238Y-120454819D02*
X138190476Y-120502438D01*
X138190476Y-120502438D02*
X138238095Y-120550057D01*
X138238095Y-120550057D02*
X138285714Y-120645295D01*
X138285714Y-120645295D02*
X138285714Y-120740533D01*
X138285714Y-120740533D02*
X138238095Y-120883390D01*
X138238095Y-120883390D02*
X137666667Y-121454819D01*
X137666667Y-121454819D02*
X138285714Y-121454819D01*
X165666666Y-100574819D02*
X165666666Y-101289104D01*
X165666666Y-101289104D02*
X165619047Y-101431961D01*
X165619047Y-101431961D02*
X165523809Y-101527200D01*
X165523809Y-101527200D02*
X165380952Y-101574819D01*
X165380952Y-101574819D02*
X165285714Y-101574819D01*
X166619047Y-100574819D02*
X166142857Y-100574819D01*
X166142857Y-100574819D02*
X166095238Y-101051009D01*
X166095238Y-101051009D02*
X166142857Y-101003390D01*
X166142857Y-101003390D02*
X166238095Y-100955771D01*
X166238095Y-100955771D02*
X166476190Y-100955771D01*
X166476190Y-100955771D02*
X166571428Y-101003390D01*
X166571428Y-101003390D02*
X166619047Y-101051009D01*
X166619047Y-101051009D02*
X166666666Y-101146247D01*
X166666666Y-101146247D02*
X166666666Y-101384342D01*
X166666666Y-101384342D02*
X166619047Y-101479580D01*
X166619047Y-101479580D02*
X166571428Y-101527200D01*
X166571428Y-101527200D02*
X166476190Y-101574819D01*
X166476190Y-101574819D02*
X166238095Y-101574819D01*
X166238095Y-101574819D02*
X166142857Y-101527200D01*
X166142857Y-101527200D02*
X166095238Y-101479580D01*
%TO.C,R4*%
D60*
X122477500Y-113262742D02*
X122477500Y-113737258D01*
X123522500Y-113262742D02*
X123522500Y-113737258D01*
%TO.C,R6*%
X142237258Y-96477500D02*
X141762742Y-96477500D01*
X142237258Y-97522500D02*
X141762742Y-97522500D01*
%TO.C,J9*%
X141620000Y-118120000D02*
X143000000Y-118120000D01*
X141620000Y-119500000D02*
X141620000Y-118120000D01*
X141620000Y-120770000D02*
X141620000Y-120880000D01*
X141620000Y-120770000D02*
X144380000Y-120770000D01*
X141620000Y-120880000D02*
X144380000Y-120880000D01*
X144380000Y-120770000D02*
X144380000Y-120880000D01*
%TO.C,TH1*%
D59*
X164396670Y-106000000D02*
X168596670Y-106000000D01*
X164396670Y-118000000D02*
X164396670Y-106000000D01*
X164396670Y-118000000D02*
X168596670Y-118000000D01*
X168596670Y-118000000D02*
X168596670Y-106000000D01*
%TO.C,R3*%
D60*
X139737258Y-118477500D02*
X139262742Y-118477500D01*
X139737258Y-119522500D02*
X139262742Y-119522500D01*
%TO.C,C4*%
X134646267Y-106490000D02*
X134353733Y-106490000D01*
X134646267Y-107510000D02*
X134353733Y-107510000D01*
%TO.C,U3*%
D61*
X140500000Y-98250000D02*
X140500000Y-98305000D01*
X140500000Y-98250000D02*
X141055000Y-98250000D01*
X140500000Y-100695000D02*
X140500000Y-100750000D01*
X140500000Y-100750000D02*
X141055000Y-100750000D01*
X142945000Y-98250000D02*
X143500000Y-98250000D01*
X142945000Y-100750000D02*
X143500000Y-100750000D01*
X143500000Y-98250000D02*
X143500000Y-98305000D01*
X143500000Y-100695000D02*
X143500000Y-100750000D01*
D59*
X140075000Y-98600000D02*
G75*
G02*
X139925000Y-98600000I-75000J0D01*
G01*
X139925000Y-98600000D02*
G75*
G02*
X140075000Y-98600000I75000J0D01*
G01*
%TO.C,J2*%
D60*
X116340000Y-120110000D02*
X116340000Y-121360000D01*
X116340000Y-121360000D02*
X117590000Y-121360000D01*
X116440000Y-119300000D02*
X116440000Y-119600000D01*
X116440000Y-119600000D02*
X116640000Y-119600000D01*
X116540000Y-119300000D02*
X116540000Y-119600000D01*
X116640000Y-118500000D02*
X117250000Y-118500000D01*
X116640000Y-119300000D02*
X116440000Y-119300000D01*
X117250000Y-113550000D02*
X117250000Y-115500000D01*
X117250000Y-115500000D02*
X116640000Y-115500000D01*
X117250000Y-118500000D02*
X117250000Y-120450000D01*
X117250000Y-120450000D02*
X120750000Y-120450000D01*
X117950000Y-112940000D02*
X117950000Y-113550000D01*
X117950000Y-121060000D02*
X117950000Y-120450000D01*
X119250000Y-112940000D02*
X119250000Y-113550000D01*
X119250000Y-121060000D02*
X119250000Y-120450000D01*
X120250000Y-115900000D02*
X120750000Y-115900000D01*
X120250000Y-116100000D02*
X120250000Y-115900000D01*
X120250000Y-117900000D02*
X120750000Y-117900000D01*
X120250000Y-118100000D02*
X120250000Y-117900000D01*
X120750000Y-113550000D02*
X117250000Y-113550000D01*
X120750000Y-116000000D02*
X120250000Y-116000000D01*
X120750000Y-116100000D02*
X120250000Y-116100000D01*
X120750000Y-118000000D02*
X120250000Y-118000000D01*
X120750000Y-118100000D02*
X120250000Y-118100000D01*
X120750000Y-120450000D02*
X120750000Y-113550000D01*
X116640000Y-112940000D02*
X121360000Y-112940000D01*
X121360000Y-121060000D01*
X116640000Y-121060000D01*
X116640000Y-112940000D01*
%TO.C,J6*%
X141620000Y-102620000D02*
X143000000Y-102620000D01*
X141620000Y-104000000D02*
X141620000Y-102620000D01*
X141620000Y-105270000D02*
X141620000Y-105380000D01*
X141620000Y-105270000D02*
X144380000Y-105270000D01*
X141620000Y-105380000D02*
X144380000Y-105380000D01*
X144380000Y-105270000D02*
X144380000Y-105380000D01*
%TO.C,C2*%
X122353733Y-107490000D02*
X122646267Y-107490000D01*
X122353733Y-108510000D02*
X122646267Y-108510000D01*
%TO.C,J7*%
X141620000Y-106620000D02*
X143000000Y-106620000D01*
X141620000Y-108000000D02*
X141620000Y-106620000D01*
X141620000Y-109270000D02*
X141620000Y-109380000D01*
X141620000Y-109270000D02*
X144380000Y-109270000D01*
X141620000Y-109380000D02*
X144380000Y-109380000D01*
X144380000Y-109270000D02*
X144380000Y-109380000D01*
%TO.C,R5*%
X137477500Y-99737258D02*
X137477500Y-99262742D01*
X138522500Y-99737258D02*
X138522500Y-99262742D01*
%TO.C,J3*%
X120890000Y-109755000D02*
X120890000Y-110089970D01*
X120890000Y-110910030D02*
X120890000Y-111245000D01*
X121765000Y-109755000D02*
X120890000Y-109755000D01*
X121765000Y-109755000D02*
X121765000Y-109814435D01*
X121765000Y-111185565D02*
X121765000Y-111245000D01*
X121765000Y-111245000D02*
X120890000Y-111245000D01*
X122500000Y-109755000D02*
X123235000Y-109755000D01*
X123235000Y-109755000D02*
X123235000Y-110500000D01*
%TO.C,J1*%
X123340000Y-118810000D02*
X123340000Y-121310000D01*
X123340000Y-121310000D02*
X125840000Y-121310000D01*
X123640000Y-118700000D02*
X124140000Y-118700000D01*
X123640000Y-119510000D02*
X124640000Y-119510000D01*
X124140000Y-117490000D02*
X130860000Y-117490000D01*
X124140000Y-118700000D02*
X124140000Y-117490000D01*
X124640000Y-119510000D02*
X124640000Y-121010000D01*
X130360000Y-119510000D02*
X130360000Y-121010000D01*
X130860000Y-117490000D02*
X130860000Y-118700000D01*
X130860000Y-118700000D02*
X131360000Y-118700000D01*
X131360000Y-119510000D02*
X130360000Y-119510000D01*
X123640000Y-116990000D02*
X131360000Y-116990000D01*
X131360000Y-121010000D01*
X123640000Y-121010000D01*
X123640000Y-116990000D01*
%TO.C,U1*%
X125540000Y-110615000D02*
X129660000Y-110615000D01*
X125540000Y-110710000D02*
X125540000Y-110615000D01*
X125540000Y-115735000D02*
X125540000Y-115640000D01*
X129660000Y-110615000D02*
X129660000Y-110710000D01*
X129660000Y-115640000D02*
X129660000Y-115735000D01*
X129660000Y-115735000D02*
X125540000Y-115735000D01*
X125000000Y-110705000D02*
X124760000Y-110375000D01*
X125240000Y-110375000D01*
X125000000Y-110705000D01*
G36*
X125000000Y-110705000D02*
G01*
X124760000Y-110375000D01*
X125240000Y-110375000D01*
X125000000Y-110705000D01*
G37*
%TO.C,C1*%
X126238748Y-107265000D02*
X126761252Y-107265000D01*
X126238748Y-108735000D02*
X126761252Y-108735000D01*
%TO.C,R2*%
X166237258Y-118977500D02*
X165762742Y-118977500D01*
X166237258Y-120022500D02*
X165762742Y-120022500D01*
%TO.C,J8*%
X137620000Y-106120000D02*
X139000000Y-106120000D01*
X137620000Y-107500000D02*
X137620000Y-106120000D01*
X137620000Y-108770000D02*
X137620000Y-108880000D01*
X137620000Y-108770000D02*
X140380000Y-108770000D01*
X137620000Y-108880000D02*
X140380000Y-108880000D01*
X140380000Y-108770000D02*
X140380000Y-108880000D01*
%TO.C,U2*%
D61*
X145620000Y-120350000D02*
X145620000Y-97650000D01*
X150120000Y-96350000D02*
X150120000Y-97650000D01*
X150120000Y-97650000D02*
X145620000Y-97650000D01*
X159120000Y-96350000D02*
X150120000Y-96350000D01*
X159120000Y-96350000D02*
X159120000Y-97650000D01*
X163620000Y-97650000D02*
X159120000Y-97650000D01*
X163620000Y-120350000D02*
X145620000Y-120350000D01*
X163620000Y-120350000D02*
X163620000Y-97650000D01*
%TO.C,J4*%
D60*
X133290000Y-108890000D02*
X134500000Y-108890000D01*
X133290000Y-115610000D02*
X133290000Y-108890000D01*
X134500000Y-108890000D02*
X134500000Y-108390000D01*
X134500000Y-115610000D02*
X133290000Y-115610000D01*
X134500000Y-116110000D02*
X134500000Y-115610000D01*
X134610000Y-116410000D02*
X137110000Y-116410000D01*
X135310000Y-108390000D02*
X135310000Y-109390000D01*
X135310000Y-109390000D02*
X136810000Y-109390000D01*
X135310000Y-115110000D02*
X136810000Y-115110000D01*
X135310000Y-116110000D02*
X135310000Y-115110000D01*
X137110000Y-116410000D02*
X137110000Y-113910000D01*
X132790000Y-108390000D02*
X136810000Y-108390000D01*
X136810000Y-116110000D01*
X132790000Y-116110000D01*
X132790000Y-108390000D01*
%TO.C,C3*%
X130238748Y-107265000D02*
X130761252Y-107265000D01*
X130238748Y-108735000D02*
X130761252Y-108735000D01*
%TO.C,R1*%
X139977500Y-115762742D02*
X139977500Y-116237258D01*
X141022500Y-115762742D02*
X141022500Y-116237258D01*
%TO.C,D1*%
X139170000Y-110764000D02*
X139170000Y-110920000D01*
X139170000Y-113080000D02*
X139170000Y-113236000D01*
X139170000Y-110764484D02*
G75*
G02*
X142401437Y-110920000I1560000J-1235516D01*
G01*
X139689039Y-110920000D02*
G75*
G02*
X141770961Y-110920000I1040961J-1080000D01*
G01*
X141770961Y-113080000D02*
G75*
G02*
X139689039Y-113080000I-1040961J1080000D01*
G01*
X142401437Y-113080000D02*
G75*
G02*
X139170000Y-113235516I-1671437J1080000D01*
G01*
%TO.C,D2*%
X133440000Y-117764000D02*
X133440000Y-117920000D01*
X133440000Y-120080000D02*
X133440000Y-120236000D01*
X133440000Y-117764484D02*
G75*
G02*
X136671437Y-117920000I1560000J-1235516D01*
G01*
X133959039Y-117920000D02*
G75*
G02*
X136040961Y-117920000I1040961J-1080000D01*
G01*
X136040961Y-120080000D02*
G75*
G02*
X133959039Y-120080000I-1040961J1080000D01*
G01*
X136671437Y-120080000D02*
G75*
G02*
X133440000Y-120235516I-1671437J1080000D01*
G01*
%TO.C,J5*%
X164620000Y-102120000D02*
X166000000Y-102120000D01*
X164620000Y-103500000D02*
X164620000Y-102120000D01*
X164620000Y-104770000D02*
X164620000Y-104880000D01*
X164620000Y-104770000D02*
X167380000Y-104770000D01*
X164620000Y-104880000D02*
X167380000Y-104880000D01*
X167380000Y-104770000D02*
X167380000Y-104880000D01*
%TD*%
D62*
X115000000Y-95000000D02*
X170000000Y-95000000D01*
X170000000Y-122500000D01*
X115000000Y-122500000D01*
X115000000Y-95000000D01*
M02*
